<svg  xmlns="http://www.w3.org/2000/svg" viewBox="-131.9038105676658 -127 263.8076211353316 254"><g id="tiles"><g transform="translate(0 0)"><polygon points="43.30127018922193,-25 43.30127018922193,25 0,50 -43.30127018922193,25 -43.30127018922193,-25 0,-50" stroke="#222" fill="#0966a5"></polygon></g><g transform="translate(-43.30127018922193 -75)"><polygon points="43.30127018922193,-25 43.30127018922193,25 0,50 -43.30127018922193,25 -43.30127018922193,-25 0,-50" stroke="#222" fill="#d2ca8d"></polygon></g><g transform="translate(43.30127018922193 -75)"><polygon points="43.30127018922193,-25 43.30127018922193,25 0,50 -43.30127018922193,25 -43.30127018922193,-25 0,-50" stroke="#222" fill="#179738"></polygon></g><g transform="translate(86.60254037844386 0)"><polygon points="43.30127018922193,-25 43.30127018922193,25 0,50 -43.30127018922193,25 -43.30127018922193,-25 0,-50" stroke="#222" fill="#e16529"></polygon></g><g transform="translate(43.30127018922193 75)"><polygon points="43.30127018922193,-25 43.30127018922193,25 0,50 -43.30127018922193,25 -43.30127018922193,-25 0,-50" stroke="#222" fill="#93b509"></polygon></g><g transform="translate(-43.30127018922193 75)"><polygon points="43.30127018922193,-25 43.30127018922193,25 0,50 -43.30127018922193,25 -43.30127018922193,-25 0,-50" stroke="#222" fill="#f4bc28"></polygon></g><g transform="translate(-86.60254037844386 0)"><polygon points="43.30127018922193,-25 43.30127018922193,25 0,50 -43.30127018922193,25 -43.30127018922193,-25 0,-50" stroke="#222" fill="#a6aca8"></polygon></g></g></svg>