<?xml version="1.0" standalone="no"?>
<!DOCTYPE svg PUBLIC "-//W3C//DTD SVG 20010904//EN"
 "http://www.w3.org/TR/2001/REC-SVG-20010904/DTD/svg10.dtd">
<svg version="1.0" xmlns="http://www.w3.org/2000/svg"
 width="528.000000pt" height="528.000000pt" viewBox="0 0 528.000000 528.000000"
 preserveAspectRatio="xMidYMid meet">
<g transform="translate(0.000000,528.000000) scale(0.100000,-0.100000)"
fill="#000000" stroke="none">
<path d="M1735 5129 c-22 -12 -120 -68 -218 -125 -98 -57 -183 -104 -188 -104
-5 0 -9 -4 -9 -10 0 -5 -4 -10 -9 -10 -4 0 -48 -23 -97 -52 -49 -28 -102 -58
-119 -67 -16 -9 -32 -18 -35 -21 -5 -5 -24 -16 -99 -57 -25 -14 -50 -29 -56
-33 -6 -6 -10 -186 -9 -509 0 -409 -2 -501 -13 -501 -7 0 -13 -4 -13 -10 0 -5
-4 -10 -9 -10 -5 0 -80 -41 -168 -92 -87 -50 -171 -99 -186 -107 -16 -9 -36
-20 -45 -26 -9 -5 -60 -34 -112 -64 -52 -30 -103 -61 -114 -70 -10 -9 -21 -15
-25 -15 -3 1 -45 -22 -93 -50 l-88 -51 0 -505 0 -505 124 -73 c69 -39 130 -72
135 -72 6 0 11 -4 11 -10 0 -5 4 -10 9 -10 4 0 96 -51 203 -113 107 -62 201
-116 209 -120 7 -4 30 -17 49 -29 19 -12 56 -33 81 -47 l45 -26 0 -480 c-1
-264 0 -490 3 -502 3 -21 72 -65 338 -214 63 -35 347 -200 403 -234 30 -18 72
-43 94 -54 l38 -22 122 69 c66 39 193 111 281 162 88 51 180 104 205 118 25
14 74 42 109 64 34 21 65 38 67 38 3 0 22 11 43 25 l39 24 54 -30 c29 -16 62
-35 73 -42 34 -21 89 -53 138 -80 26 -15 68 -39 95 -54 26 -14 64 -37 84 -50
21 -12 42 -23 48 -23 5 0 10 -4 10 -10 0 -5 4 -10 9 -10 9 0 316 -175 337
-191 16 -13 30 -6 183 83 73 43 137 78 141 78 5 0 10 3 12 8 2 4 23 18 48 31
25 13 115 65 200 114 85 50 164 96 175 102 98 54 133 78 137 93 2 9 3 235 3
501 l-1 483 38 24 c21 13 40 24 43 24 4 0 23 12 42 28 20 15 38 26 40 24 4 -3
63 31 213 120 30 18 60 35 66 38 5 3 103 59 217 125 l207 119 0 506 0 506
-172 99 c-94 55 -177 101 -185 103 -7 2 -13 8 -13 13 0 5 -5 9 -11 9 -6 0 -64
31 -129 70 -65 38 -122 70 -126 70 -4 0 -15 6 -23 14 -9 7 -43 28 -76 46 -33
18 -76 43 -96 56 l-35 22 0 492 c1 315 -3 498 -9 505 -9 11 -180 112 -340 200
-28 16 -62 36 -77 46 -14 11 -29 19 -32 19 -4 0 -23 11 -44 24 -62 39 -305
179 -344 198 -38 18 -38 18 -78 -7 -22 -14 -44 -25 -50 -25 -5 0 -10 -4 -10
-10 0 -5 -4 -10 -9 -10 -5 0 -69 -35 -143 -78 -74 -43 -141 -82 -149 -86 -8
-4 -23 -12 -34 -19 -26 -16 -170 -99 -215 -124 -19 -11 -74 -43 -123 -71 l-87
-50 -133 77 c-73 43 -140 80 -148 84 -8 4 -21 11 -29 17 -44 28 -173 100 -181
100 -5 0 -9 3 -9 8 0 4 -10 12 -23 18 -49 23 -112 59 -115 67 -2 4 -7 7 -12 7
-8 0 -25 10 -158 88 -29 18 -54 32 -55 32 -1 0 -20 -10 -42 -21z"/>
</g>
</svg>
